<?xml version="1.0" encoding="UTF-8" standalone="no"?>
<svg
    width="24"
    height="24"
    id="svg3"
    xmlns="http://www.w3.org/2000/svg">
    <path
        id="path1"
        fill="#ffffff" stroke="black" stroke-width="0.75"
        d="M 8.2271076,23.363286 C 8.0016361,23.310276 7.2462153,23.003305 6.7622053,22.768011 5.5691344,22.188018 4.5008896,21.423632 3.5386285,20.461371 1.5842113,18.506954 0.39594932,16.038893 0.09491343,13.308655 0.02576735,12.681537 0.01655458,11.444208 0.07649295,10.834677 0.30410743,8.5199996 1.198412,6.3325267 2.6701078,4.4906832 3.090027,3.9651496 3.9651496,3.090027 4.4906832,2.6701078 6.3410176,1.1916272 8.5090599,0.30824792 10.86287,0.07372909 c 0.524416,-0.05224947 1.745788,-0.05251173 2.27426,-4.8833e-4 2.337587,0.23011459 4.51861,1.11867044 6.372187,2.59605064 0.52076,0.4150677 1.396136,1.290965 1.82031,1.8213918 1.478401,1.8487357 2.380053,4.0695477 2.597935,6.3988438 0.06594,0.704946 0.027,2.182914 -0.07491,2.843392 -0.335381,2.173518 -1.166717,4.076742 -2.523155,5.776398 -0.418813,0.524785 -1.29389,1.400052 -1.820178,1.820575 -1.05517,0.843117 -2.381102,1.581285 -3.536543,1.968852 -0.245335,0.08229 -0.36616,0.10473 -0.464551,0.08627 -0.202074,-0.03791 -0.332355,-0.118986 -0.405108,-0.252107 -0.05993,-0.109649 -0.06779,-0.306535 -0.08738,-2.18881 -0.02057,-1.976357 -0.0252,-2.082367 -0.103929,-2.384186 -0.103537,-0.396899 -0.296691,-0.801515 -0.504307,-1.056411 l -0.160497,-0.197046 0.469667,-0.0667 c 0.935249,-0.132829 1.924085,-0.445294 2.528174,-0.798887 0.848083,-0.496409 1.395657,-1.086916 1.819914,-1.962604 0.325117,-0.671059 0.495402,-1.364215 0.578746,-2.35583 C 19.769856,10.619112 19.47971,9.4836663 18.710258,8.4703114 L 18.449546,8.1269579 18.503586,7.9737932 C 18.632929,7.6071958 18.68049,7.190422 18.658656,6.6149068 18.637127,6.0474209 18.596392,5.8130508 18.424322,5.2666543 18.329558,4.9657375 18.326564,4.9615796 18.187706,4.9381196 17.639498,4.8455005 16.44563,5.2714353 15.382007,5.9391056 L 14.99818,6.1800455 14.628767,6.0907386 C 12.963078,5.6880529 11.016364,5.6945199 9.2990728,6.1084435 L 9.0018723,6.1800786 8.6096318,5.9335498 C 7.5543738,5.2703057 6.3616617,4.8453048 5.8148631,4.9376858 5.6848062,4.9596585 5.6721429,4.9743976 5.5966293,5.1916863 5.2830976,6.093868 5.2414144,7.2510481 5.4964137,7.9737932 l 0.05404,0.1531647 -0.251934,0.3318343 C 4.862365,9.033272 4.5466852,9.7290566 4.4157652,10.404457 c -0.1710372,0.882359 -0.07952,2.303226 0.2119837,3.291195 0.3507641,1.188816 1.0692999,2.126166 2.0890976,2.725285 0.6648667,0.390602 1.6447576,0.704859 2.5999237,0.833812 0.1742236,0.02352 0.3383512,0.0496 0.3647284,0.05796 0.031724,0.01005 -0.00397,0.08089 -0.1054602,0.209284 C 9.3310412,17.831941 9.119226,18.321221 9.0678842,18.6958 9.039815,18.900587 8.9939571,18.933312 8.552795,19.063371 8.1094968,19.194061 7.5089937,19.226611 7.1408676,19.139904 6.7918927,19.057708 6.4029313,18.845632 6.1259583,18.586537 5.9992301,18.46799 5.7573291,18.169417 5.5884,17.923042 5.2205575,17.386561 4.9059798,17.084997 4.5046502,16.884125 4.1579191,16.710581 3.8614729,16.642572 3.5678126,16.6692 3.296237,16.69383 3.1677019,16.772595 3.1677019,16.914397 c 0,0.133922 0.1589726,0.299923 0.548852,0.573119 0.5045721,0.353563 0.7614246,0.694925 1.1877093,1.57849 0.2555449,0.529671 0.3054567,0.60667 0.5498956,0.848332 0.4053868,0.400781 0.8201545,0.616108 1.4569576,0.756379 0.3514968,0.07743 1.2720212,0.07621 1.6975793,-0.0022 0.1742236,-0.03212 0.3293478,-0.05871 0.3447204,-0.05909 0.015373,-3.76e-4 0.02795,0.522279 0.02795,1.16146 0,1.081821 -0.0051,1.172676 -0.073743,1.314479 -0.1161038,0.239838 -0.3815348,0.348256 -0.6805163,0.277964 z"
    />
</svg>
