<?xml version="1.0" encoding="UTF-8" standalone="no"?>
<svg
   viewBox="0 0 128 128"
   version="1.1"
   id="svg4"
   sodipodi:docname="linkedin.svg"
   inkscape:version="1.1.2 (0a00cf5339, 2022-02-04)"
   xmlns:inkscape="http://www.inkscape.org/namespaces/inkscape"
   xmlns:sodipodi="http://sodipodi.sourceforge.net/DTD/sodipodi-0.dtd"
   xmlns="http://www.w3.org/2000/svg"
   xmlns:svg="http://www.w3.org/2000/svg">
  <defs
     id="defs8" />
  <sodipodi:namedview
     id="namedview6"
     pagecolor="#ffffff"
     bordercolor="#666666"
     borderopacity="1.0"
     inkscape:pageshadow="2"
     inkscape:pageopacity="0.0"
     inkscape:pagecheckerboard="0"
     showgrid="false"
     inkscape:zoom="5.03125"
     inkscape:cx="63.900621"
     inkscape:cy="63.801242"
     inkscape:window-width="1920"
     inkscape:window-height="1013"
     inkscape:window-x="0"
     inkscape:window-y="0"
     inkscape:window-maximized="1"
     inkscape:current-layer="svg4" />
  <path
     style="fill:#ffffff;stroke-width:0.198758"
     d="m 9.4409938,124.54193 c -2.349222,-0.7471 -4.4633542,-2.5965 -5.52117,-4.82981 L 3.2795031,118.36025 V 64 9.6397516 L 3.9198238,8.287878 C 4.772006,6.4887133 6.4887133,4.772006 8.287878,3.9198238 L 9.6397516,3.2795031 H 64 118.36025 l 1.3479,0.6363476 c 1.78057,0.8406111 3.43444,2.4945072 4.33255,4.3325965 l 0.6798,1.3913044 V 64 118.36025 l -0.6798,1.3913 c -0.88949,1.82046 -2.46869,3.39966 -4.28915,4.28915 l -1.3913,0.6798 -54.062113,0.0371 C 21.015463,124.7873 10.077504,124.7443 9.4409938,124.5419 Z M 39.354037,77.913043 V 48.695652 h -9.242236 -9.242236 v 29.217391 29.217387 h 9.242236 9.242236 z m 29.420087,13.167702 c 0.0046,-18.518312 0.05648,-19.21849 1.680727,-22.657753 1.597756,-3.383169 4.521549,-5.019265 8.969698,-5.019265 5.176463,0 7.826721,2.371394 8.953172,8.011108 0.281594,1.409837 0.336666,3.918422 0.409922,18.672122 l 0.08463,17.043473 h 9.143062 9.143065 L 107.0761,87.900621 C 106.987,67.090155 106.974,66.817322 105.84572,62.099802 103.92666,54.075975 99.599097,49.639509 91.937305,47.841391 c -1.552626,-0.36438 -2.402872,-0.422084 -6.173297,-0.418961 -3.847944,0.0032 -4.555738,0.05452 -5.898222,0.427742 -4.743205,1.318665 -8.610274,3.9246 -10.896654,7.343025 l -0.993944,1.486068 v -3.991806 -3.991807 h -8.745341 -8.745342 v 29.217391 29.217387 h 9.142857 9.142857 l 0.0039,-16.049685 z M 33.610343,40.25892 c 4.521781,-1.540603 7.370811,-5.8282 7.072752,-10.644013 -0.436158,-7.047109 -7.514334,-11.671853 -14.167609,-9.256844 -5.530453,2.007446 -8.317806,8.135701 -6.233823,13.705643 0.593475,1.586204 1.872213,3.406938 3.050978,4.344143 1.311469,1.042715 3.50499,2.081689 4.890961,2.316637 1.534683,0.260156 3.841994,0.06074 5.386741,-0.465566 z"
     id="path47" />
</svg>
