<?xml version="1.0" encoding="UTF-8" standalone="no"?>
<svg 
	viewBox="0 0 100 59"
	id="svg2"
	xmlns="http://www.w3.org/2000/svg">
	<path id="path1"
		fill="#ffffff" stroke="black" stroke-width="3.5"
		d="M 7.07,58.52 C 4.34,57.89 2.12,56.34 0.76,54.10 0.23,53.23 0.20,51.79 0.21,29.57 0.21,29.57 0.21,5.96 0.21,5.96 0.21,5.96 1.11,4.52 1.11,4.52 2.14,2.86 4.07,1.43 6.26,0.68 6.26,0.68 7.73,0.18 7.73,0.18 7.73,0.18 49.97,0.18 49.97,0.1849.97,0.18 92.21,0.18 92.21,0.18 92.21,0.18 94.36,0.99 94.36,0.99 95.91,1.57 96.84,2.11 97.67,2.93 99.97,5.17 99.85,3.72 99.76,29.92 99.76,29.92 99.68,53.41 99.68,53.41 99.68,53.41 98.80,54.73 98.80,54.73 97.72,56.35 95.63,57.75 93.36,58.38 91.67,58.84 91.14,58.85 50.00,58.83 17.02,58.82 8.09,58.75 7.07,58.52 7.07,58.52 7.07,58.52 7.07,58.52 Z M 72.06,23.21 C 81.55,18.84 89.50,15.15 89.72,15.00 90.02,14.80 90.10,13.79 90.03,10.99 90.03,10.99 89.95,7.26 89.95,7.26 89.95,7.26 70.07,16.40 70.07,16.40 57.57,22.15 50.01,25.50 49.70,25.41 49.44,25.34 40.41,21.22 29.65,16.26 18.89,11.30 10.01,7.24 9.93,7.24 9.84,7.24 9.77,8.94 9.77,11.03 9.77,11.03 9.77,14.82 9.77,14.82 9.77,14.82 29.89,24.09 29.89,24.09 29.89,24.09 50.01,33.36 50.01,33.36 50.01,33.36 52.40,32.25 52.40,32.25 53.72,31.64 62.57,27.57 72.06,23.21 72.06,23.21 72.06,23.21 72.06,23.21 Z" 
    />
</svg>
